<?xml version="1.0" encoding="UTF-8" standalone="no"?>
<svg
   width="500pt"
   height="500pt"
   preserveAspectRatio="xMidYMid"
   version="1.0"
   viewBox="0 0 500 500"
   xml:space="preserve"
   id="svg1"
   sodipodi:docname="profile.svg"
   inkscape:version="1.4 (e7c3feb, 2024-10-09)"
   inkscape:export-filename="profile.png"
   inkscape:export-xdpi="96"
   inkscape:export-ydpi="96"
   xmlns:inkscape="http://www.inkscape.org/namespaces/inkscape"
   xmlns:sodipodi="http://sodipodi.sourceforge.net/DTD/sodipodi-0.dtd"
   xmlns="http://www.w3.org/2000/svg"
   xmlns:svg="http://www.w3.org/2000/svg"><defs
     id="defs1" /><sodipodi:namedview
     id="namedview1"
     pagecolor="#ffffff"
     bordercolor="#000000"
     borderopacity="0.25"
     inkscape:showpageshadow="2"
     inkscape:pageopacity="0.0"
     inkscape:pagecheckerboard="0"
     inkscape:deskcolor="#d1d1d1"
     inkscape:document-units="pt"
     inkscape:zoom="0.85171012"
     inkscape:cx="86.884021"
     inkscape:cy="290.59183"
     inkscape:window-width="1872"
     inkscape:window-height="1011"
     inkscape:window-x="48"
     inkscape:window-y="32"
     inkscape:window-maximized="1"
     inkscape:current-layer="svg1" /><metadata
     id="metadata1">
</metadata><g
     transform="matrix(0.1,0,0,-0.1,0,512)"
     id="g1"><rect
       style="fill:#ffffff;stroke-width:14.1732;stroke-linecap:round"
       id="rect1"
       width="5000"
       height="5000"
       x="4.5474735e-13"
       y="-5120"
       transform="scale(1,-1)" /><rect
       style="fill:#1a1a1a;stroke-width:94.1067;stroke-linecap:round"
       id="rect2"
       width="5000"
       height="5000"
       x="0"
       y="-5120"
       transform="scale(1,-1)" /><path
       d="m 0,120 c 1802.5527,-0.72651 4465.4657,-0.23721 5000,0 v 5000 c -1088.2056,-0.4829 -4093.74992,-0.4022 -5000,0 z m 3809.8157,3837.2408 c 6.6181,2.5813 14.1815,0.3199 18.1936,-5.4394 4.0121,-5.7595 3.3968,-13.472 -1.4801,-18.5529 l -465.4751,-485.7078 c -74.5367,-77.7726 -152.5407,-152.7155 -221.3282,-235.4004 -53.4821,-64.2906 -109.7362,-128.1531 -148.2093,-201.9965 -32.4116,-62.2056 -51.7815,-130.6839 -67.4038,-198.8187 -18.0431,-78.6891 -26.5438,-159.5947 -29.8869,-240.1726 -2.01,-48.4581 -8.9312,-99.1161 5.9606,-145.379 20.9087,-64.9472 58.0847,-129.7696 112.718,-171.9595 37.1077,-28.661 114.3001,-87.8339 133.9048,-45.7465 22.5773,48.4704 -105.2648,39.8117 -141.8492,79.261 -47.5244,51.2399 -75.4577,121.073 -86.8717,189.3527 -7.9303,47.4426 -1.2717,97.9589 14.3753,143.5282 11.9953,34.9339 26.4378,75.8828 59.1059,94.2372 94.9278,53.3383 220.3137,24.4275 328.3562,7.1699 36.0669,-5.7608 71.3976,-18.6465 103.1333,-36.3721 23.1894,-12.9524 38.4583,-37.1302 61.7104,-49.9767 190.7242,-105.3788 517.8608,-163.6196 775.7768,-248.4008 98.1729,-32.2702 201.3814,-53.1945 293.7287,-99.0716 l 71.311,-35.4243 c 14.0231,-6.997 9.7114,-27.6153 -5.994,-28.6633 l -183.4978,-12.0203 c -185.9143,-12.1653 -371.4866,30.2175 -556.3294,53.2268 -94.1402,11.7193 -186.7349,34.9929 -281.2706,43.1822 -16.9593,1.4693 -45.1422,16.662 -51.0578,1.0453 -11.4015,-30.1016 62.6861,-31.8799 76.0184,-61.2132 28.1225,-61.8734 25.4018,-144.4202 -9.4335,-202.9331 -59.3533,-99.6959 -188.7637,-144.565 -299.4962,-184.2798 -82.9621,-29.7536 -175.8041,-19.4837 -262.4296,-36.5348 -150.7055,-29.6644 -294.7318,-88.2609 -446.1668,-114.1268 -170.1735,-29.0713 -343.4815,-51.0593 -516.1397,-45.567 -157.3165,5.0045 -312.8206,38.1994 -466.5352,71.3236 -97.5061,21.0113 -188.2395,85.0031 -287.9842,80.5834 -42.5126,-1.8835 -76.904,-39.4995 -119.0758,-45.0609 -70.683,-9.3211 -185.5495,5.9243 -263.02232,18.9453 -45.19229,7.5956 -50.7158,35.5938 -12.5721,60.4953 80.09892,52.2924 211.57132,137.3624 292.65732,185.7291 57.6105,34.3707 154.6493,87.631 215.6861,120.7943 30.6039,16.6295 31.6206,45.023 2.1872,63.5658 l -186.8945,117.7392 c -104.8305,66.0388 -194.5654,153.8415 -279.73193,242.9264 -44.76714,46.8304 -58.53717,173.2641 -120.39802,152.0687 L 632.06324,2654.1077 317.52156,2475.28 c -10.12504,-5.7525 -23.03098,-3.3685 -30.31436,5.5997 -7.28338,8.9681 -6.73855,21.8051 1.27978,30.1516 l 371.32696,386.0644 c 191.49931,199.0975 541.22686,140.2056 817.20886,183.2651 106.8263,16.6653 216.9284,48.7024 323.1814,28.8262 34.4906,-6.4517 80.352,-14.9082 93.9841,-46.5639 l 77.7885,-180.6004 c 6.7821,-15.7387 29.2988,-16.4814 37.1498,-1.2251 l 50.2725,97.7816 c 48.696,94.7043 124.923,173.632 195.1808,254.3436 48.0715,55.2248 93.5088,115.2194 154.3416,156.6957 162.3886,110.7039 369.6058,141.354 543.78,233.3266 z"
       fill="#457fc5"
       id="path1"
       sodipodi:nodetypes="ccccccscccccsccscsscsscsccccsscsscscssssscccccccccscccscccccccc"
       style="stroke-width:1.12732" /></g></svg>
