<?xml version="1.0" encoding="UTF-8" standalone="no"?>
<svg
   width="580"
   height="305"
   preserveAspectRatio="xMidYMid"
   version="1.0"
   viewBox="0 0 435 228.75"
   xml:space="preserve"
   id="svg1"
   sodipodi:docname="logo-inverted.svg"
   inkscape:version="1.4 (e7c3feb, 2024-10-09)"
   xmlns:inkscape="http://www.inkscape.org/namespaces/inkscape"
   xmlns:sodipodi="http://sodipodi.sourceforge.net/DTD/sodipodi-0.dtd"
   xmlns="http://www.w3.org/2000/svg"
   xmlns:svg="http://www.w3.org/2000/svg"><defs
     id="defs1" /><sodipodi:namedview
     id="namedview1"
     pagecolor="#ffffff"
     bordercolor="#000000"
     borderopacity="0.25"
     inkscape:showpageshadow="2"
     inkscape:pageopacity="0.0"
     inkscape:pagecheckerboard="0"
     inkscape:deskcolor="#d1d1d1"
     inkscape:document-units="pt"
     inkscape:zoom="0.58884927"
     inkscape:cx="-123.97061"
     inkscape:cy="371.0627"
     inkscape:window-width="1872"
     inkscape:window-height="1011"
     inkscape:window-x="48"
     inkscape:window-y="32"
     inkscape:window-maximized="1"
     inkscape:current-layer="g1" /><metadata
     id="metadata1">
</metadata><g
     transform="matrix(0.1,0,0,-0.1,0,512)"
     id="g1"
     style="fill:#1a1a1a"><path
       d="m 3526.1227,5118.9445 c 6.6153,2.5731 14.1751,0.3189 18.1854,-5.4226 4.0103,-5.7415 3.3954,-13.4299 -1.4794,-18.4949 l -465.2634,-484.1928 c -74.5028,-77.53 -152.4714,-152.2391 -221.2275,-234.6662 -53.4578,-64.09 -109.6864,-127.7533 -148.142,-201.3664 -32.3968,-62.0115 -51.7579,-130.2762 -67.3731,-198.1985 -18.0349,-78.4436 -26.5318,-159.0969 -29.8733,-239.4234 -2.0091,-48.307 -8.9271,-98.8069 5.9579,-144.9255 20.8992,-64.7446 58.0583,-129.3648 112.6668,-171.4231 37.0907,-28.5716 114.248,-87.56 133.8438,-45.6039 22.5671,48.3192 -105.2169,39.6875 -141.7847,79.0138 -47.5027,51.0801 -75.4234,120.6953 -86.8322,188.7621 -7.9267,47.2946 -1.2711,97.6533 14.3687,143.0805 11.99,34.8248 26.4259,75.646 59.0791,93.9432 94.8847,53.1719 220.2135,24.3513 328.2068,7.1476 36.0506,-5.7429 71.3652,-18.5884 103.0865,-36.2587 23.1789,-12.912 38.4408,-37.0144 61.6823,-49.8208 190.6375,-105.0501 517.6253,-163.1092 775.424,-247.626 98.1282,-32.1695 201.2899,-53.0286 293.5952,-98.7625 l 71.2785,-35.3139 c 14.0168,-6.9751 9.707,-27.5291 -5.9913,-28.5739 l -183.4144,-11.9828 c -185.8296,-12.1273 -371.3176,30.1232 -556.0762,53.0608 -94.0976,11.6827 -186.6501,34.8838 -281.1428,43.0475 -16.9516,1.4647 -45.1217,16.61 -51.0345,1.042 -11.3964,-30.0077 62.6575,-31.7804 75.9838,-61.0222 28.1097,-61.6804 25.3902,-143.9697 -9.4293,-202.3001 -59.3263,-99.3849 -188.6778,-144.1141 -299.3599,-183.7049 -82.9245,-29.6609 -175.7243,-19.423 -262.3104,-36.4209 -150.6369,-29.5719 -294.5976,-87.9856 -445.9639,-113.7708 -170.096,-28.9807 -343.3251,-50.9001 -515.9049,-45.4249 -157.2449,4.9889 -312.6783,38.0803 -466.323,71.1011 -97.4618,20.9458 -188.1539,84.7379 -287.8532,80.332 -42.4933,-1.8776 -76.86906,-39.3762 -119.02167,-44.9203 -70.65083,-9.292 -185.46513,5.9059 -262.90271,18.8862 -45.17173,7.572 -50.69273,35.4828 -12.56638,60.3066 80.06252,52.1293 211.47513,136.934 292.52426,185.1498 57.5843,34.2635 154.579,87.3577 215.5879,120.4175 30.59,16.5776 31.6063,44.8826 2.1862,63.3675 l -186.80943,117.372 c -104.78283,65.8328 -194.47691,153.3616 -279.6047,242.1686 -44.74678,46.6844 -58.51055,172.7236 -120.34327,151.5944 L 349.81552,3819.8761 35.416885,3641.6062 c -10.120433,-5.7345 -23.020507,-3.358 -30.3005736,5.5822 -7.2800669,8.9402 -6.735486,21.7372 1.2791956,30.0577 L 377.5536,4062.1062 c 191.41222,198.4765 540.98075,139.7683 816.8372,182.6935 106.7777,16.6132 216.8298,48.5505 323.0344,28.7362 34.475,-6.4316 80.3154,-14.8617 93.9414,-46.4187 l 77.7532,-180.037 c 6.7789,-15.6896 29.2854,-16.43 37.1329,-1.2213 l 50.2495,97.4766 c 48.6739,94.4089 124.8663,173.0904 195.0922,253.5502 48.0495,55.0526 93.4662,114.86 154.2713,156.207 162.3147,110.3585 369.4377,140.913 543.5328,232.5988 z"
       fill="#457fc5"
       id="path1"
       sodipodi:nodetypes="cscccccsccscsscsscsccccsscsscscssssscccccccccscccscccccccc"
       style="fill:#151515;fill-opacity:1;stroke-width:1.1253" /></g></svg>
